<?xml version="1.0" encoding="utf-8"?>
<!-- Generator: Adobe Illustrator 21.1.0, SVG Export Plug-In . SVG Version: 6.00 Build 0)  -->
<svg version="1.1" id="Capa_1" xmlns="http://www.w3.org/2000/svg" xmlns:xlink="http://www.w3.org/1999/xlink" x="0px" y="0px"
	 viewBox="0 0 1732.4 309.7" style="enable-background:new 0 0 1732.4 309.7;" xml:space="preserve">
<style type="text/css">
	.st0{fill:#5B7C50;}
	.st1{font-family:'PlayfairDisplay-BoldItalic';}
	.st2{font-size:160px;}
</style>
<g>
	<g>
		<g>
			<path class="st0" d="M90.2,115.2l24.5,43c0.2,0.3,0.4,0.6,0.6,0.8c83.1,88.7,211.1,87.7,212.4,87.7c0.5,0,1-0.1,1.4-0.2
				c1.7-0.6,3-2.3,3-4.2c0-2.4-2-4.4-4.5-4.4c-1.2,0-125.1,0.9-205.4-84.5l-24.2-42.6c-1.2-2.1-3.9-2.9-6-1.7
				C89.7,110.4,88.9,113.1,90.2,115.2z"/>
		</g>
	</g>
	<g>
		<g>
			<path class="st0" d="M67.2,129.6c11.9,19.9,32.1,31.2,50.2,28.1c0.2,0,0.5-0.1,0.7-0.2c0.8-0.3,1.5-0.8,2-1.4
				c11.4-14.4,11-37.5-0.9-57.5C107.3,78.7,87.1,67.4,69,70.5c-1.1,0.2-2,0.8-2.7,1.6C54.9,86.6,55.2,109.7,67.2,129.6z M72.2,79
				c13.9-1.4,29.9,8.3,39.4,24.1c9.5,15.9,10.4,34.5,2.6,46.1c-13.9,1.4-29.9-8.3-39.4-24.1C65.3,109.2,64.3,90.6,72.2,79z"/>
		</g>
	</g>
	<g>
		<g>
			<path class="st0" d="M196.5,214.4c0.8,0.1,1.5,0.1,2.3-0.2c0.3-0.1,0.6-0.2,0.9-0.4c17.3-10.6,25.8-34.7,21.2-60
				c-4.7-25.3-21.2-44.7-41.2-48.4c-1.1-0.2-2.2,0-3.1,0.6c-17.3,10.6-25.8,34.7-21.2,60C160,191.2,176.5,210.7,196.5,214.4z
				 M164,164.3c-3.8-20.6,2.6-40.8,15.6-49.9c15.4,3.8,28.6,20.4,32.4,41c3.8,20.6-2.6,40.8-15.6,49.9
				C181,201.5,167.8,184.9,164,164.3z"/>
		</g>
	</g>
	<g>
		<g>
			<path class="st0" d="M53.9,210.1c9.5,17.9,33.1,27.8,58.7,24.6c5.5-0.7,10.8-1.9,15.7-3.6c18-6.3,31.5-19.1,35.4-34.5
				c0.3-1.1,0.1-2.2-0.4-3.2c-9.5-17.9-33.1-27.8-58.7-24.6c-25.6,3.1-46.1,18.5-51.1,38.1C53.2,208,53.4,209.1,53.9,210.1z
				 M62.6,207.4c4.8-15.1,22.2-27.3,43.1-29.8c20.9-2.6,40.7,5,49,18.5c-4.8,15.1-22.2,27.3-43.1,29.8
				C90.6,228.5,70.8,220.9,62.6,207.4z"/>
		</g>
	</g>
	<g>
		<g>
			<path class="st0" d="M170.1,275.3c11.1,10.5,29.4,12.9,47.1,6.7c2.2-0.8,4.3-1.6,6.4-2.6c19.6-9.3,31.8-27,30.5-44.1
				c-0.1-1.1-0.6-2.1-1.4-2.9c-12.4-11.7-33.9-13.4-53.5-4.1c-19.6,9.3-31.8,27-30.5,44.1C168.8,273.5,169.3,274.6,170.1,275.3z
				 M177.5,270c0-12.7,10.2-26.4,25.6-33.7c15.3-7.3,32.4-6.7,42.3,1.4c0,12.7-10.2,26.4-25.6,33.7
				C204.4,278.7,187.4,278.1,177.5,270z"/>
		</g>
	</g>
	<g>
		<g>
			<path class="st0" d="M193.5,213.3c0.9,2.2,3.3,3.3,5.6,2.5c0.1,0,0.1,0,0.2-0.1c2.3-0.9,3.4-3.5,2.5-5.8
				c-11.4-28.3-7.2-49.8-7.2-50c0.5-2.4-1.1-4.7-3.5-5.2c-2.4-0.5-4.7,1.1-5.2,3.5C185.6,159.2,181.1,182.6,193.5,213.3z"/>
		</g>
	</g>
	<g>
		<g>
			<path class="st0" d="M110.5,205.4c1,0,25,1,50.7-8c2.3-0.8,3.5-3.3,2.7-5.6c-0.8-2.3-3.3-3.5-5.6-2.7
				c-24.1,8.4-47.2,7.6-47.4,7.5c-2.4-0.1-4.5,1.8-4.6,4.2C106.2,203.3,108.1,205.3,110.5,205.4z"/>
		</g>
	</g>
</g>
<text transform="matrix(1 0 0 1 286.5077 201.7798)" class="st0 st1 st2">The Annex Garden</text>
</svg>
